
<svg width="1400" height="1400" viewBox="0 0 1400 1400" xmlns="http://www.w3.org/2000/svg">
  <defs>
    <linearGradient id="bg" x1="0" y1="0" x2="1" y2="1">
      <stop offset="0%" stop-color="#fffaf2"/>
      <stop offset="50%" stop-color="#eadfce"/>
      <stop offset="100%" stop-color="#d7c6ae"/>
    </linearGradient>
    <radialGradient id="light" cx="28%" cy="18%" r="72%">
      <stop offset="0%" stop-color="#ffffff" stop-opacity="0.9"/>
      <stop offset="60%" stop-color="#ffffff" stop-opacity="0.22"/>
      <stop offset="100%" stop-color="#ffffff" stop-opacity="0"/>
    </radialGradient>
    <filter id="shadow" x="-30%" y="-30%" width="160%" height="160%">
      <feDropShadow dx="0" dy="34" stdDeviation="36" flood-color="#514a3d" flood-opacity="0.20"/>
    </filter>
  </defs>

  <rect width="1400" height="1400" fill="url(#bg)"/>
  <rect width="1400" height="1400" fill="url(#light)"/>
  <circle cx="1180" cy="190" r="280" fill="#ffffff" opacity="0.18"/>
  <circle cx="180" cy="1180" r="320" fill="#ffffff" opacity="0.16"/>
  <path d="M0 1040 C260 890 460 1160 700 980 C940 800 1130 900 1400 760 L1400 1400 L0 1400 Z" fill="#ffffff" opacity="0.24"/>

  <g filter="url(#shadow)">
    
      <path d="M170 780 C360 650 540 720 700 820 C860 720 1040 650 1230 780 C1080 960 855 1010 700 930 C545 1010 320 960 170 780 Z" fill="#decab2" opacity="0.78"/>
      <circle cx="700" cy="610" r="120" fill="#c8ad89" opacity="0.62"/>
      <path d="M635 612 C700 525 780 585 815 650 C725 682 665 675 635 612 Z" fill="#6d573c" opacity="0.14"/>
    
  </g>
</svg>