
<svg width="1400" height="1400" viewBox="0 0 1400 1400" xmlns="http://www.w3.org/2000/svg">
  <defs>
    <linearGradient id="bg" x1="0" y1="0" x2="1" y2="1">
      <stop offset="0%" stop-color="#fffaf2"/>
      <stop offset="50%" stop-color="#ded9cb"/>
      <stop offset="100%" stop-color="#cfc7b7"/>
    </linearGradient>
    <radialGradient id="light" cx="28%" cy="18%" r="72%">
      <stop offset="0%" stop-color="#ffffff" stop-opacity="0.9"/>
      <stop offset="60%" stop-color="#ffffff" stop-opacity="0.22"/>
      <stop offset="100%" stop-color="#ffffff" stop-opacity="0"/>
    </radialGradient>
    <filter id="shadow" x="-30%" y="-30%" width="160%" height="160%">
      <feDropShadow dx="0" dy="34" stdDeviation="36" flood-color="#514a3d" flood-opacity="0.20"/>
    </filter>
  </defs>

  <rect width="1400" height="1400" fill="url(#bg)"/>
  <rect width="1400" height="1400" fill="url(#light)"/>
  <circle cx="1180" cy="190" r="280" fill="#ffffff" opacity="0.18"/>
  <circle cx="180" cy="1180" r="320" fill="#ffffff" opacity="0.16"/>
  <path d="M0 1040 C260 890 460 1160 700 980 C940 800 1130 900 1400 760 L1400 1400 L0 1400 Z" fill="#ffffff" opacity="0.24"/>

  <g filter="url(#shadow)">
    
      <ellipse cx="700" cy="690" rx="300" ry="390" fill="#aeb493" opacity="0.22"/>
      <circle cx="700" cy="485" r="100" fill="#dcc0a0"/>
      <path d="M500 890 C540 690 860 690 900 890 C820 965 580 965 500 890 Z" fill="#ead6c0"/>
      <path d="M445 575 C580 450 820 450 955 575 C790 640 610 640 445 575 Z" fill="#fff9ee" opacity="0.62"/>
      <path d="M570 565 C640 618 760 618 830 565" stroke="#4f5843" stroke-width="18" opacity="0.13" fill="none" stroke-linecap="round"/>
    
  </g>
</svg>