
<svg width="1400" height="1400" viewBox="0 0 1400 1400" xmlns="http://www.w3.org/2000/svg">
  <defs>
    <linearGradient id="bg" x1="0" y1="0" x2="1" y2="1">
      <stop offset="0%" stop-color="#fffaf2"/>
      <stop offset="50%" stop-color="#dfd5c2"/>
      <stop offset="100%" stop-color="#cfc7b7"/>
    </linearGradient>
    <radialGradient id="light" cx="28%" cy="18%" r="72%">
      <stop offset="0%" stop-color="#ffffff" stop-opacity="0.9"/>
      <stop offset="60%" stop-color="#ffffff" stop-opacity="0.22"/>
      <stop offset="100%" stop-color="#ffffff" stop-opacity="0"/>
    </radialGradient>
    <filter id="shadow" x="-30%" y="-30%" width="160%" height="160%">
      <feDropShadow dx="0" dy="34" stdDeviation="36" flood-color="#514a3d" flood-opacity="0.20"/>
    </filter>
  </defs>

  <rect width="1400" height="1400" fill="url(#bg)"/>
  <rect width="1400" height="1400" fill="url(#light)"/>
  <circle cx="1180" cy="190" r="280" fill="#ffffff" opacity="0.18"/>
  <circle cx="180" cy="1180" r="320" fill="#ffffff" opacity="0.16"/>
  <path d="M0 1040 C260 890 460 1160 700 980 C940 800 1130 900 1400 760 L1400 1400 L0 1400 Z" fill="#ffffff" opacity="0.24"/>

  <g filter="url(#shadow)">
    
      <path d="M505 350 C620 295 780 295 895 350 L850 1010 C760 1078 640 1078 550 1010 Z" fill="#9aa173"/>
      <path d="M575 430 C660 390 740 390 825 430 L790 955 C725 995 675 995 610 955 Z" fill="#eee6d4" opacity="0.78"/>
      <rect x="625" y="610" width="150" height="112" rx="34" fill="#fffaf0" opacity="0.88"/>
      <text x="700" y="664" text-anchor="middle" font-family="Georgia, serif" font-size="34" fill="#596044">natura</text>
      <text x="700" y="700" text-anchor="middle" font-family="Arial" font-size="16" letter-spacing="3" fill="#596044">REFILL</text>
    
  </g>
</svg>